<svg xmlns="http://www.w3.org/2000/svg" width="69.032" height="41.464" viewBox="0 0 69.032 41.464">
  <path id="Icon_awesome-aws" data-name="Icon awesome-aws" d="M19.459,19.5c-.078,2.443,1.143,3.525,1.174,4.212a.881.881,0,0,1-.442.676l-1.381.966a1.15,1.15,0,0,1-.607.207c-.046,0-.883.2-2.209-2.762A8.479,8.479,0,0,1,9.24,25.978c-1.756.1-6.515-1-6.27-6.063-.171-4.129,3.674-6.694,7.651-6.477a21.662,21.662,0,0,1,5.068.676V12.429c.29-2.854-1.586-5.068-4.833-4.736a12.866,12.866,0,0,0-4.944,1.09c-.794.365-.9.3-1.16.3-.8,0-.47-2.317-.317-2.61C5,5.787,8.3,4.5,11.548,4.517a8.29,8.29,0,0,1,6.007,1.864,7.581,7.581,0,0,1,1.906,5.648V19.5ZM10.138,23c3.5-.051,4.979-2.154,5.316-3.287a10.8,10.8,0,0,0,.221-2.955,18.539,18.539,0,0,0-4.267-.525c-1.634-.123-4.619.607-4.5,3.48A3,3,0,0,0,10.138,23Zm18.436,2.486a1.245,1.245,0,0,1-1.368-1.119L21.834,6.6a4.12,4.12,0,0,1-.207-.925.5.5,0,0,1,.416-.566c.026,0-.23,0,2.4,0A1.225,1.225,0,0,1,25.8,6.231l3.853,15.19,3.577-15.19a1.221,1.221,0,0,1,1.381-1.1h1.851a1.194,1.194,0,0,1,1.368,1.119l3.6,15.384L45.407,6.245a1.262,1.262,0,0,1,1.368-1.119H48.9c.092-.014.663-.087.566.925-.046.2.368-1.15-5.69,18.325A1.245,1.245,0,0,1,42.411,25.5H40.395a1.245,1.245,0,0,1-1.368-1.16L35.451,9.545,31.915,24.321a1.243,1.243,0,0,1-1.368,1.16H28.573Zm29.5.607a14.572,14.572,0,0,1-6.187-1.326,1.381,1.381,0,0,1-.842-1.285V22.319c0-.911.669-.744.952-.635A14.809,14.809,0,0,0,55.1,22.719c3.953.812,5.692-.248,6.118-.483a2.48,2.48,0,0,0,.566-3.77c-1.13-.948-1.67-.984-5.731-2.265-.5-.139-4.714-1.468-4.723-5.648-.066-3.046,2.7-6.06,7.5-6.035,1.367,0,5.008.445,5.994,1.685a1.3,1.3,0,0,1,.207.759v1.09q0,.718-.525.718c-.832-.093-2.307-1.2-5.3-1.16-.743-.039-4.3.1-4.143,2.693-.046,2.045,2.87,2.812,3.2,2.9,3.933,1.183,5.247,1.38,6.808,3.191a5.861,5.861,0,0,1,.469,5.98c-2.058,4.044-7.38,3.715-7.47,3.713ZM62.407,37.4c-7.553,5.579-18.519,8.548-27.881,8.548A50.6,50.6,0,0,1,.305,32.925c-.7-.635-.083-1.506.773-1.021a68.747,68.747,0,0,0,34.179,9.073,67.976,67.976,0,0,0,26.058-5.344c1.271-.539,2.348.841,1.092,1.767Zm3.148-3.591c-.966-1.243-6.394-.58-8.824-.29-.732.083-.856-.552-.193-1.021,4.322-3.038,11.42-2.168,12.236-1.147s-.221,8.134-4.267,11.531c-.621.525-1.216.248-.939-.442.91-2.292,2.954-7.387,1.988-8.631Z" transform="translate(0 -4.485)"/>
</svg>
