<svg xmlns="http://www.w3.org/2000/svg" width="74.865" height="74.864" viewBox="0 0 74.865 74.864">
  <path id="Icon_simple-next-dot-js" data-name="Icon simple-next-dot-js" d="M55.566,70.191c-.278.147-.262.206.016.066a.711.711,0,0,0,.218-.147c0-.05-.006-.044-.234.081Zm.555-.293c-.131.1-.131.109.028.028a.449.449,0,0,0,.162-.109C56.312,69.758,56.274,69.773,56.122,69.9Zm.365-.221c-.131.1-.131.109.028.028a.449.449,0,0,0,.162-.109C56.677,69.536,56.639,69.552,56.487,69.677Zm.365-.218c-.131.1-.131.109.028.028a.449.449,0,0,0,.162-.109C57.042,69.318,57,69.334,56.852,69.458Zm.505-.328c-.256.162-.337.271-.109.147.162-.094.424-.293.381-.3a1.453,1.453,0,0,0-.271.153ZM34.981.015c-.162.016-.674.066-1.136.1a37.514,37.514,0,0,0-26.9,15.513A37.047,37.047,0,0,0,.338,31.987,28.7,28.7,0,0,0,0,37.44a28.72,28.72,0,0,0,.337,5.453,37.587,37.587,0,0,0,25.6,30.244,39.551,39.551,0,0,0,7.9,1.638,68.743,68.743,0,0,0,7.172,0A37.79,37.79,0,0,0,54.5,70.831c.643-.331.767-.418.68-.49q-3.076-4.065-6.1-8.173L43.1,54.082l-7.5-11.1q-3.74-5.571-7.552-11.093c-.028-.006-.059,4.926-.072,10.946-.022,10.544-.028,10.968-.162,11.218a1.323,1.323,0,0,1-.643.664c-.234.119-.44.14-1.544.14H24.362l-.337-.212a1.379,1.379,0,0,1-.49-.533l-.153-.331L23.4,39.112l.022-14.677.228-.284a1.987,1.987,0,0,1,.543-.446c.3-.147.418-.162,1.685-.162,1.494,0,1.741.059,2.131.484q4.554,6.777,9.031,13.6C41.9,45,48.538,55.059,51.8,60l5.927,8.978.3-.2a38.5,38.5,0,0,0,7.69-6.748A37.247,37.247,0,0,0,74.53,42.9a28.7,28.7,0,0,0,.337-5.453,28.72,28.72,0,0,0-.337-5.453,37.587,37.587,0,0,0-25.6-30.244A39.156,39.156,0,0,0,41.132.118c-.7-.072-5.54-.153-6.145-.094ZM50.3,22.656a1.469,1.469,0,0,1,.739.864c.059.19.072,4.258.059,13.426L51.08,50.1,48.76,46.549l-2.327-3.556V33.428c0-6.183.028-9.658.072-9.826a1.51,1.51,0,0,1,.724-.923c.3-.153.409-.168,1.56-.168C49.87,22.51,50.06,22.525,50.3,22.656Z" transform="translate(-0.001 -0.004)"/>
</svg>
