<svg xmlns="http://www.w3.org/2000/svg" width="75.295" height="75.295" viewBox="0 0 75.295 75.295">
  <path id="Icon_simple-typescript" data-name="Icon simple-typescript" d="M0,37.647V75.295H75.295V0H0Zm60.678-3a9.361,9.361,0,0,1,4.709,2.714,12.172,12.172,0,0,1,1.8,2.416c.025.094-3.25,2.29-5.233,3.523-.072.047-.361-.264-.681-.74a4.271,4.271,0,0,0-3.539-2.127c-2.284-.157-3.752,1.038-3.74,3.034a2.761,2.761,0,0,0,.32,1.412c.5,1.038,1.437,1.663,4.361,2.927,5.393,2.322,7.7,3.849,9.133,6.024a10.929,10.929,0,0,1,.872,9.18c-1.192,3.131-4.157,5.258-8.33,5.961a22.975,22.975,0,0,1-5.735-.056,13.845,13.845,0,0,1-7.661-3.994A13.261,13.261,0,0,1,45,62.018a4.959,4.959,0,0,1,.69-.442c.339-.191,1.6-.922,2.8-1.616L50.652,58.7l.455.671a10.115,10.115,0,0,0,2.855,2.736c2.4,1.267,5.7,1.089,7.326-.37a3.266,3.266,0,0,0,.417-4.173c-.584-.835-1.779-1.537-5.173-3.012-3.884-1.672-5.556-2.711-7.087-4.361a9.929,9.929,0,0,1-2.067-3.765,15.144,15.144,0,0,1-.132-4.8c.8-3.755,3.633-6.369,7.721-7.147a19.057,19.057,0,0,1,5.713.166ZM43,37.792l.025,3.084h-9.8V68.722H26.29V40.876H16.5V37.851a30.091,30.091,0,0,1,.082-3.106c.038-.05,6-.075,13.23-.063l13.161.038Z"/>
</svg>
