<svg xmlns="http://www.w3.org/2000/svg" width="53.795" height="62.761" viewBox="0 0 53.795 62.761">
  <g id="Icon_ionic-logo-nodejs" data-name="Icon ionic-logo-nodejs" transform="translate(2.25 4.5)">
    <path id="Path_18" data-name="Path 18" d="M24.636,58.261a4.558,4.558,0,0,1-2.33-.644l-7.423-4.545c-1.109-.639-.564-.869-.2-1a16.008,16.008,0,0,0,3.495-1.721.559.559,0,0,1,.554.045l5.563,3.293a.712.712,0,0,0,.691,0l21.74-12.923a.733.733,0,0,0,.338-.622V13.974a.748.748,0,0,0-.343-.634L24.988.077a.674.674,0,0,0-.686,0L2.585,13.344a.741.741,0,0,0-.352.63v26.17a.715.715,0,0,0,.348.615l5.594,3.358c3.308,1.71,5.266-.024,5.266-2.047V16.335a.649.649,0,0,1,.644-.662h3.2a.651.651,0,0,1,.644.662V42.069c0,4.562-2.711,7.179-6.892,7.179-1.283,0-2.3,0-5.121-1.44L.085,44.337a4.891,4.891,0,0,1-2.335-4.2V13.6A4.878,4.878,0,0,1,.085,9.407l22.23-13.29a4.721,4.721,0,0,1,4.67,0L49.21,9.407A4.884,4.884,0,0,1,51.545,13.6V40.141a4.9,4.9,0,0,1-2.335,4.2L26.984,57.614a4.556,4.556,0,0,1-2.339.644Z"/>
    <path id="Path_19" data-name="Path 19" d="M20.553,30.839c-9.051,0-11.768-4.428-11.768-8.3a.65.65,0,0,1,.639-.662H12.3a.65.65,0,0,1,.639.563c.432,3.026,2.346,4.364,7.61,4.364,4.679,0,6.6-1.449,6.6-4.018,0-1.484-.485-2.581-7.762-3.32-6.084-.622-9.847-2.014-9.847-7.046,0-4.642,3.782-7.353,10.119-7.353,6.462,0,10.712,1.961,11.091,7.121a.7.7,0,0,1-.174.51.634.634,0,0,1-.47.214H27.219a.644.644,0,0,1-.625-.52c-.617-2.375-2.377-3.278-6.943-3.278-5.111,0-5.708,1.787-5.708,3.167,0,1.676.7,2.163,7.606,3.106,6.831.933,10.077,2.258,10.077,7.222,0,5.013-4.036,8.235-11.078,8.235Z" transform="translate(10.951 9.49)"/>
  </g>
</svg>
