<svg xmlns="http://www.w3.org/2000/svg" width="75.761" height="75.761" viewBox="0 0 75.761 75.761">
  <path id="Icon_awesome-js-square" data-name="Icon awesome-js-square" d="M67.644,2.25H8.117A8.119,8.119,0,0,0,0,10.367V69.894a8.119,8.119,0,0,0,8.117,8.117H67.644a8.119,8.119,0,0,0,8.117-8.117V10.367A8.119,8.119,0,0,0,67.644,2.25ZM41.229,61.337c0,7.373-4.329,10.738-10.637,10.738-5.7,0-9-2.942-10.688-6.511l5.8-3.5c1.116,1.979,2.131,3.653,4.583,3.653,2.334,0,3.822-.913,3.822-4.481v-24.2h7.119ZM58.072,72.075c-6.612,0-10.891-3.145-12.971-7.272l5.8-3.348c1.522,2.486,3.517,4.329,7.018,4.329,2.942,0,4.837-1.471,4.837-3.517,0-2.435-1.928-3.3-5.192-4.735l-1.776-.761c-5.141-2.182-8.54-4.938-8.54-10.738,0-5.344,4.076-9.4,10.417-9.4,4.532,0,7.779,1.573,10.113,5.7L62.232,45.88c-1.218-2.182-2.537-3.044-4.583-3.044a3.09,3.09,0,0,0-3.4,3.044c0,2.131,1.319,2.993,4.38,4.329l1.776.761c6.054,2.587,9.453,5.242,9.453,11.2,0,6.392-5.039,9.91-11.787,9.91Z" transform="translate(0 -2.25)"/>
</svg>
