<svg xmlns="http://www.w3.org/2000/svg" width="74.853" height="74.856" viewBox="0 0 74.853 74.856">
  <path id="Icon_simple-gatsby" data-name="Icon simple-gatsby" d="M37.438.01A37.226,37.226,0,0,0,.01,37.435,37.23,37.23,0,0,0,37.435,74.866,37.228,37.228,0,0,0,74.863,37.438,37.224,37.224,0,0,0,37.438.01ZM8.146,37.763,37.114,66.731A29.032,29.032,0,0,1,8.146,37.763Zm35.8,28.316L8.8,30.929A29.416,29.416,0,0,1,61.2,20.191l-4.228,3.576A23.894,23.894,0,0,0,37.114,13.354,23.576,23.576,0,0,0,14.655,29.3L45.249,59.9A23.181,23.181,0,0,0,60.222,42.971H47.527V37.438h19.2a29.34,29.34,0,0,1-22.783,28.64Z" transform="translate(-0.01 -0.01)"/>
</svg>
