<svg xmlns="http://www.w3.org/2000/svg" width="65" height="52.424" viewBox="0 0 65 52.424">
  <path id="Icon_awesome-git" data-name="Icon awesome-git" d="M27.459,17.3H17.393C12.315,15.971.826,16.318.826,26.8A8.233,8.233,0,0,0,5.27,34.542c-3.187,2.92-4.7,4.3-4.7,6.247a3.437,3.437,0,0,0,2.271,3.4C1.032,45.9,0,47.132,0,49.455c0,4.076,3.561,6.452,12.9,6.452,8.982,0,14.192-3.354,14.192-9.291,0-7.447-5.733-7.173-19.25-8l1.7-2.736c3.462.962,15.069,1.27,15.069-8.619a8.214,8.214,0,0,0-1.9-5.214l4.749-.361Zm-8.051,30.71c0,4.07-13.316,4.075-13.316.309a4.586,4.586,0,0,1,1.342-2.735C17.3,46.26,19.407,46.015,19.407,48.013ZM12.957,30.928c-6.7,0-6.406-9.034.152-9.034A4.528,4.528,0,1,1,12.957,30.928ZM29.88,43.688V39.612c3.4-.465,3.458-.254,3.458-1.4V23.044c0-1.079-.26-.937-3.458-2.064l.567-4.179H41.133V38.218c0,.826.051.929.826,1.033l2.632.361v4.075Zm6.659-31.016c-2.942,0-4.645-1.7-4.645-4.648s1.7-4.541,4.645-4.541c2.994,0,4.7,1.6,4.7,4.541S39.532,12.672,36.539,12.672ZM65,41.687a20.645,20.645,0,0,1-8.415,2.064c-6.142,0-8.464-2.476-8.464-8.31V21.919c0-.688.133-.515-4.026-.515V16.809c4.542-.517,6.348-2.793,6.915-8.413h4.9c0,8.357-.17,7.847.414,7.847H63.6V21.4H55.916V33.737c0,.879-.625,6.527,7.69,3.407Z" transform="translate(0 -3.483)"/>
</svg>
