<svg xmlns="http://www.w3.org/2000/svg" width="77.558" height="67.867" viewBox="0 0 77.558 67.867">
  <path id="Icon_awesome-react" data-name="Icon awesome-react" d="M63.349,24.244q-1.227-.409-2.454-.773c.136-.56.258-1.121.379-1.681,1.863-9.028.636-16.284-3.5-18.677C53.79.825,47.292,3.2,40.718,8.929c-.651.56-1.288,1.151-1.893,1.742-.409-.394-.833-.788-1.257-1.166C30.675,3.385,23.767.81,19.632,3.218c-3.969,2.3-5.15,9.134-3.484,17.678.167.848.348,1.681.56,2.53-.969.273-1.924.576-2.818.894C5.8,27.122,0,31.545,0,36.12c0,4.726,6.18,9.467,14.587,12.346.682.227,1.363.454,2.06.651-.227.909-.424,1.8-.606,2.727-1.591,8.407-.348,15.072,3.62,17.36,4.09,2.363,10.967-.061,17.663-5.923.53-.47,1.06-.954,1.591-1.469.667.651,1.363,1.272,2.06,1.878,6.483,5.574,12.891,7.832,16.845,5.544,4.09-2.363,5.423-9.528,3.7-18.253q-.2-1-.454-2.045c.485-.136.954-.288,1.424-.439,8.74-2.893,15.072-7.574,15.072-12.376,0-4.59-5.968-9.043-14.209-11.876Zm-20.5-12.861C48.489,6.475,53.745,4.551,56.138,5.93c2.56,1.469,3.545,7.407,1.939,15.209-.106.515-.212,1.015-.348,1.515a77.546,77.546,0,0,0-10.195-1.606A76.534,76.534,0,0,0,41.081,13c.591-.56,1.166-1.091,1.772-1.621Zm-17.526,32.6c.773,1.318,1.56,2.636,2.393,3.923a68.594,68.594,0,0,1-7.029-1.136,70.761,70.761,0,0,1,2.469-6.741C23.858,41.361,24.57,42.679,25.327,43.982Zm-4.59-18.223c2.181-.485,4.5-.879,6.907-1.182-.8,1.257-1.591,2.545-2.333,3.848-.742,1.288-1.469,2.605-2.151,3.938-.954-2.257-1.757-4.469-2.424-6.6ZM24.888,36.2c1-2.09,2.09-4.135,3.242-6.15s2.393-3.969,3.7-5.893c2.272-.167,4.59-.258,6.953-.258s4.7.091,6.953.258q1.931,2.863,3.681,5.862t3.287,6.12q-1.522,3.136-3.272,6.18c-1.151,2.015-2.378,3.969-3.666,5.908-2.257.167-4.6.242-6.983.242s-4.681-.076-6.907-.212q-1.977-2.886-3.726-5.908c-1.166-2.015-2.242-4.06-3.257-6.15Zm27.357,7.756c.773-1.333,1.5-2.681,2.212-4.045a70.319,70.319,0,0,1,2.56,6.711,66.533,66.533,0,0,1-7.12,1.212C50.715,46.557,51.488,45.254,52.245,43.951Zm2.181-11.588c-.712-1.333-1.439-2.666-2.2-3.969q-1.113-1.931-2.318-3.817a69.709,69.709,0,0,1,6.953,1.212,67.039,67.039,0,0,1-2.439,6.574ZM38.809,15.322a66.518,66.518,0,0,1,4.484,5.423c-3-.136-6.014-.136-9.013,0C35.764,18.791,37.294,16.973,38.809,15.322ZM21.237,6.036c2.545-1.485,8.2.636,14.148,5.908.379.333.757.7,1.151,1.06a76.96,76.96,0,0,0-6.5,8.044,79.849,79.849,0,0,0-10.179,1.575c-.2-.773-.364-1.56-.53-2.348C17.9,12.943,18.844,7.414,21.237,6.036Zm-3.711,39.93c-.636-.182-1.257-.379-1.878-.591A30.9,30.9,0,0,1,6.1,40.649,6.8,6.8,0,0,1,3.257,36.12c0-2.772,4.787-6.317,11.694-8.725.863-.3,1.742-.576,2.621-.833A80.548,80.548,0,0,0,21.283,36.2a82.8,82.8,0,0,0-3.757,9.77ZM35.189,60.811a27.726,27.726,0,0,1-8.543,5.347,6.7,6.7,0,0,1-5.347.2c-2.409-1.394-3.408-6.741-2.045-13.936.167-.848.348-1.7.56-2.53A75.78,75.78,0,0,0,30.1,51.374a79.94,79.94,0,0,0,6.544,8.089C36.158,59.932,35.673,60.387,35.189,60.811ZM38.9,57.13c-1.545-1.666-3.09-3.514-4.59-5.5,1.454.061,2.954.091,4.469.091,1.56,0,3.09-.03,4.6-.106A65.325,65.325,0,0,1,38.9,57.13Zm19.8,4.544a6.732,6.732,0,0,1-2.5,4.741c-2.409,1.394-7.544-.424-13.088-5.181-.636-.545-1.272-1.136-1.924-1.742a74.935,74.935,0,0,0,6.392-8.119,74.674,74.674,0,0,0,10.331-1.591c.151.621.288,1.242.409,1.848A27.614,27.614,0,0,1,58.7,61.674ZM61.455,45.39c-.424.136-.848.273-1.288.394a76.951,76.951,0,0,0-3.863-9.664,76.567,76.567,0,0,0,3.711-9.528c.788.227,1.545.47,2.272.712C69.347,29.727,74.3,33.333,74.3,36.09c0,2.969-5.287,6.8-12.845,9.3ZM38.779,43.118a6.938,6.938,0,1,0-6.938-6.938A6.937,6.937,0,0,0,38.779,43.118Z" transform="translate(0 -2.251)"/>
</svg>
