<svg xmlns="http://www.w3.org/2000/svg" width="60.751" height="62.619" viewBox="0 0 60.751 62.619">
  <path id="Icon_simple-postgresql" data-name="Icon simple-postgresql" d="M44.245,0a26.441,26.441,0,0,0-7.188,1.051l-.164.052A28.5,28.5,0,0,0,32.431.673a14.9,14.9,0,0,0-7.843,1.936A30.286,30.286,0,0,0,13.551.877,13.446,13.446,0,0,0,4.289,4.749C1.714,7.475.352,11.694.639,17.434a51.265,51.265,0,0,0,1.278,7.512A88.452,88.452,0,0,0,5.03,35.779c1.312,3.575,2.75,6.784,5,8.965a6.146,6.146,0,0,0,4.488,1.936,5.758,5.758,0,0,0,3.431-1.44,4.117,4.117,0,0,0,1.477,1.177,7.163,7.163,0,0,0,1.774.694,12.327,12.327,0,0,0,5.083.261,9.606,9.606,0,0,0,2.283-.7c.029.861.063,1.7.1,2.557a24.276,24.276,0,0,0,.986,7.389,9.635,9.635,0,0,0,1.9,3.825,7.584,7.584,0,0,0,7.313,1.97c2.218-.475,5.038-1.331,6.912-4,1.853-2.635,2.687-6.416,2.852-12.547.042-.331.091-.613.144-.877l.441.039h.052A15.5,15.5,0,0,0,56.334,43.8a9.636,9.636,0,0,0,4.383-3.348,3.349,3.349,0,0,0,.626-1.678A3.409,3.409,0,0,0,60.18,36.1c-1.552-1.179-2.528-.731-3.575-.514a16.359,16.359,0,0,1-3.136.381,60.022,60.022,0,0,0,6.413-15.251,33.247,33.247,0,0,0,1.174-7.689C61.09,10.755,60.9,8.743,59.543,7A18.7,18.7,0,0,0,44.676.01c-.144,0-.287-.005-.431,0Zm-.123,1.67C48.5,1.628,54.095,2.857,58.11,7.989c.9,1.153,1.172,2.839,1.14,4.916a32.106,32.106,0,0,1-1.119,7.28,58.5,58.5,0,0,1-7.559,16.928,1.972,1.972,0,0,0,.412.224c.757.313,2.481.582,5.923-.125a2.363,2.363,0,0,1,2.158.2,1.357,1.357,0,0,1,.477,1.109,1.837,1.837,0,0,1-.339.877,8.9,8.9,0,0,1-3.661,2.727A14.409,14.409,0,0,1,50.022,43.2a8.459,8.459,0,0,1-2.57-.295l-.047-.018c-.287,2.766-.947,8.227-1.378,10.718a8.763,8.763,0,0,1-2.1,4.8,9.292,9.292,0,0,1-4.96,2.385,6.723,6.723,0,0,1-5.957-1.117,8.143,8.143,0,0,1-2.2-3.358,9.811,9.811,0,0,1-.485-2.416c-.12-1.038-.209-2.309-.269-3.742q-.12-3.29-.078-6.583a7.987,7.987,0,0,1-4.049,1.983,10.682,10.682,0,0,1-4.36-.235,5.938,5.938,0,0,1-1.357-.524,2.508,2.508,0,0,1-1.148-1.036,1.461,1.461,0,0,1-.149-.994,1.592,1.592,0,0,1,.569-.864,5.038,5.038,0,0,1,2.231-.869,7.158,7.158,0,0,0,2.93-.965,16.038,16.038,0,0,0,1.4-1.623q0-.053-.008-.107a7.723,7.723,0,0,1-3.47-.934c-.391.412-2.39,2.526-4.827,5.458a4.771,4.771,0,0,1-3.353,1.98A4.387,4.387,0,0,1,11.2,43.4c-1.834-1.782-3.3-4.848-4.574-8.313A86.907,86.907,0,0,1,3.576,24.479,52.248,52.248,0,0,1,2.34,17.262c-.274-5.432,1-9.093,3.175-11.4A11.722,11.722,0,0,1,13.6,2.51,28.993,28.993,0,0,1,24.8,4.425,12.758,12.758,0,0,1,32.35,2.343a19.282,19.282,0,0,1,4.386.569l.052-.023a17.884,17.884,0,0,1,1.928-.558,25.116,25.116,0,0,1,5.4-.655Zm.4,1.748h-.381a22.8,22.8,0,0,0-4.446.5A19.549,19.549,0,0,1,47.129,9.79a22.021,22.021,0,0,1,2.954,5.01,12,12,0,0,1,.59,1.722,3.576,3.576,0,0,1,.1.616,1.148,1.148,0,0,1-.031.376c0,.008-.013.026-.016.034.078,2.286-.488,3.835-.556,6.017-.052,1.581.352,3.439.451,5.466a10.355,10.355,0,0,1-1.372,6.051c.1.125.2.25.3.376a57.007,57.007,0,0,0,6.888-15.715A30.719,30.719,0,0,0,57.5,12.874a6.753,6.753,0,0,0-.77-3.809A14.968,14.968,0,0,0,44.519,3.415Zm-12.5.668a10.48,10.48,0,0,0-6.974,2.335,12.916,12.916,0,0,0-3.653,5.44,23.075,23.075,0,0,0-1.338,6.3l.034-.021a13.519,13.519,0,0,1,3.465-1.346,6.85,6.85,0,0,1,4,.1,4.539,4.539,0,0,1,2.719,3.431c1.837,8.5-.571,11.658-1.459,14.042a25.074,25.074,0,0,0-.864,2.643,2.563,2.563,0,0,1,.337-.068,2.854,2.854,0,0,1,1.409.282,3.428,3.428,0,0,1,1.837,2.035,3.583,3.583,0,0,1,.185.741.877.877,0,0,1,.052.331q-.148,4.876.034,9.753c.06,1.4.149,2.64.261,3.616a9.964,9.964,0,0,0,.373,1.965,6.628,6.628,0,0,0,1.7,2.672c.882.741,2.147,1.237,4.459.741a7.593,7.593,0,0,0,4.068-1.886A7.051,7.051,0,0,0,44.3,53.31c.472-2.74,1.422-10.684,1.537-12.18a5,5,0,0,1,.475-2.654,3.087,3.087,0,0,1,1.44-1.318,4.9,4.9,0,0,1,.671-.243q-.3-.435-.634-.848A11.626,11.626,0,0,1,46.054,33.2q-.314-.641-.671-1.26c-.347-.626-.785-1.409-1.245-2.288A28.419,28.419,0,0,1,41.7,23.678c-.517-2.077-.592-4.227.733-5.743,1.174-1.346,3.235-1.9,6.33-1.592-.091-.274-.146-.5-.3-.866a20.4,20.4,0,0,0-2.716-4.6A16.869,16.869,0,0,0,32.322,4.091h-.3Zm-17.33.136c-.331,0-.663.01-.991.029a9.958,9.958,0,0,0-6.909,2.8c-1.785,1.889-2.959,4.986-2.7,10.113a54.991,54.991,0,0,0,1.2,6.919,85.863,85.863,0,0,0,2.98,10.39c1.234,3.358,2.729,6.28,4.149,7.663a2.669,2.669,0,0,0,1.9.947,3.036,3.036,0,0,0,2.079-1.352q2.276-2.746,4.723-5.344a9.124,9.124,0,0,1-3.045-8.219,32.425,32.425,0,0,0,.274-5.156c-.031-1.388-.13-2.312-.13-2.888q0-.025,0-.05v-.013l0-.016v0a25.812,25.812,0,0,1,1.545-8.809A15.067,15.067,0,0,1,23.205,5.73,29.563,29.563,0,0,0,15.68,4.248q-.5-.025-.991-.026ZM47.04,18c-1.772.023-2.766.48-3.288,1.078-.738.848-.809,2.335-.35,4.167a27.229,27.229,0,0,0,2.288,5.589c.444.853.874,1.62,1.221,2.244a15.779,15.779,0,0,1,.762,1.448,8.386,8.386,0,0,0,.464.945,8.78,8.78,0,0,0,.738-4.352c-.091-1.834-.517-3.71-.454-5.61.07-2.22.509-3.666.548-5.383A15.114,15.114,0,0,0,47.04,18Zm-21.484.3a7.358,7.358,0,0,0-1.607.193,12.172,12.172,0,0,0-3.008,1.172,6.307,6.307,0,0,0-.911.595l-.057.052c.016.381.091,1.3.123,2.664a34.216,34.216,0,0,1-.292,5.437c-.624,4.462,2.614,8.156,6.419,8.161a25.521,25.521,0,0,1,.952-2.823c1.059-2.854,3.144-4.937,1.388-13.061a2.577,2.577,0,0,0-1.639-2.171,3.846,3.846,0,0,0-1.367-.219Zm20.657.532h.13a2.29,2.29,0,0,1,.47.057,1.072,1.072,0,0,1,.36.144.428.428,0,0,1,.2.287l0,.021h0a.626.626,0,0,1-.091.352,1.743,1.743,0,0,1-.287.391,1.766,1.766,0,0,1-1.007.553,1.539,1.539,0,0,1-1.07-.269,1.586,1.586,0,0,1-.339-.308.678.678,0,0,1-.164-.331.444.444,0,0,1,.11-.334,1,1,0,0,1,.305-.235,2.91,2.91,0,0,1,.973-.3,3.37,3.37,0,0,1,.417-.034Zm-20.4.438a3.149,3.149,0,0,1,.433.034,2.858,2.858,0,0,1,1.025.318,1.164,1.164,0,0,1,.347.277.582.582,0,0,1,.141.444.788.788,0,0,1-.2.4,1.693,1.693,0,0,1-.373.339,1.67,1.67,0,0,1-1.169.295,1.9,1.9,0,0,1-1.1-.595,1.853,1.853,0,0,1-.308-.428.731.731,0,0,1-.107-.462.667.667,0,0,1,.5-.509,2.26,2.26,0,0,1,.8-.1ZM49.448,38.433l-.008,0c-.384.138-.7.2-.965.313a1.179,1.179,0,0,0-.624.558,3.353,3.353,0,0,0-.264,1.738,1.331,1.331,0,0,0,.386.183,7.278,7.278,0,0,0,2.03.211,13.6,13.6,0,0,0,4.8-.913,10.306,10.306,0,0,0,2.46-1.6h0c-3.635.751-5.688.551-6.948.031a3.431,3.431,0,0,1-.866-.522Zm-20.954.245h-.055c-.138.013-.339.06-.728.491a18.876,18.876,0,0,1-1.975,2.254,8.37,8.37,0,0,1-3.666,1.312,5,5,0,0,0-1.2.376.679.679,0,0,0,.183.138,4.351,4.351,0,0,0,.945.371,9.105,9.105,0,0,0,3.64.209,6.231,6.231,0,0,0,4.193-2.714,1.346,1.346,0,0,0,.063-1.25,1.937,1.937,0,0,0-.864-1.025,1.7,1.7,0,0,0-.532-.157Z" transform="translate(-0.601)"/>
</svg>
