<svg xmlns="http://www.w3.org/2000/svg" width="65.447" height="63.811" viewBox="0 0 65.447 63.811">
  <path id="Icon_simple-adobexd" data-name="Icon simple-adobexd" d="M53.857.45H11.59A11.58,11.58,0,0,0,0,12.04V52.671a11.58,11.58,0,0,0,11.59,11.59H53.857a11.58,11.58,0,0,0,11.59-11.59V12.04A11.58,11.58,0,0,0,53.857.45Zm8.835,51.158a9.88,9.88,0,0,1-9.872,9.926h-40.2a9.916,9.916,0,0,1-9.9-9.9V13.076a9.916,9.916,0,0,1,9.9-9.9H52.794a9.9,9.9,0,0,1,9.9,9.9ZM25.879,30.31l7.635,14.671c.136.218.055.436-.164.436H28.606a.535.535,0,0,1-.573-.355c-1.745-3.6-3.518-7.2-5.345-11.071h-.055c-1.636,3.654-3.436,7.5-5.181,11.1a.524.524,0,0,1-.491.3h-4.5c-.273,0-.3-.218-.164-.382L19.77,30.774l-7.226-14.4a.22.22,0,0,1,.164-.382H17.4a.429.429,0,0,1,.491.3c1.718,3.6,3.463,7.308,5.1,10.935h.055c1.582-3.6,3.327-7.336,5.018-10.908.136-.218.218-.355.491-.355h4.39c.218,0,.3.164.164.382Zm8.972,4.445c0-6.354,4.227-11.317,10.935-11.317a12.092,12.092,0,0,1,1.418.055V16.266a.273.273,0,0,1,.273-.273h4.309c.218,0,.273.082.273.218V41.245a19.423,19.423,0,0,0,.136,2.672c0,.164-.055.218-.218.3A16.244,16.244,0,0,1,44.995,45.8C39.077,45.827,34.85,42.172,34.85,34.755ZM47.2,27.774a4.124,4.124,0,0,0-1.582-.273c-3.436,0-5.836,2.645-5.836,7.036,0,5.018,2.454,7.036,5.536,7.036a5.145,5.145,0,0,0,1.882-.3v-13.5Z" transform="translate(0 -0.45)"/>
</svg>
