<svg xmlns="http://www.w3.org/2000/svg" width="68.178" height="47.732" viewBox="0 0 68.178 47.732">
  <path id="Icon_awesome-docker" data-name="Icon awesome-docker" d="M37.273,24.012H30.232V17.685h7.041Zm0-21.762H30.232V8.716h7.041ZM45.6,17.674H38.562V24H45.6V17.674ZM28.954,9.994H21.913v6.4h7.041Zm8.319,0H30.232v6.4h7.041ZM66.758,20.646c-1.534-1.033-5.07-1.406-7.787-.895-.352-2.556-1.779-4.783-4.378-6.785L53.1,11.975l-.991,1.491c-1.96,2.961-2.493,7.84-.394,11.057a10.714,10.714,0,0,1-5.156,1.14H.257A22.363,22.363,0,0,0,4.944,42.93c3.952,4.676,9.874,7.052,17.619,7.052,16.766,0,29.176-7.723,34.981-21.752,2.28.043,7.2.011,9.725-4.815.16-.266.7-1.406.905-1.822l-1.417-.948ZM12.315,17.674H5.285V24h7.041V17.674Zm8.319,0H13.594V24h7.041V17.674Zm8.319,0H21.913V24h7.041V17.674Zm-8.319-7.68H13.594v6.4h7.041Z" transform="translate(0.003 -2.25)"/>
</svg>
