<svg xmlns="http://www.w3.org/2000/svg" width="73.078" height="50.015" viewBox="0 0 73.078 50.015">
  <path id="Icon_awesome-laravel" data-name="Icon awesome-laravel" d="M72.788,25.961c-.48-.548-7.17-8.917-8.346-10.332s-1.758-1.165-2.478-1.062-9.191,1.53-10.173,1.69-1.6.559-.993,1.4c.537.754,6.1,8.643,7.33,10.378l-22.115,5.3L18.408,3.937c-.7-1.039-.845-1.4-2.443-1.324S2.162,3.7,1.294,3.777-.533,4.234.335,6.289s14.728,31.922,15.116,32.79A2.967,2.967,0,0,0,19.2,40.791c2.409-.582,10.766-2.763,15.333-3.962,2.409,4.373,7.33,13.232,8.243,14.5,1.21,1.7,2.055,1.416,3.916.845,1.461-.445,22.789-8.118,23.748-8.506s1.553-.674.9-1.644c-.48-.708-6.108-8.243-9.054-12.193,2.021-.537,9.2-2.443,9.967-2.66.9-.228,1.028-.662.537-1.21Zm-40.211,8.22c-.263.057-12.65,3.026-13.312,3.174s-.662.08-.742-.148S3.794,6.757,3.589,6.38s-.194-.674,0-.674,11.7-1.028,12.1-1.05.365.069.514.32c0,0,16.235,28.018,16.509,28.508C33.011,33.975,32.839,34.124,32.577,34.181Zm34.936,6.553c.194.308.4.514-.228.731s-20.973,7.09-21.361,7.261-.708.228-1.21-.514-7.124-12.193-7.124-12.193l21.555-5.606c.537-.171.708-.285,1.05.251s7.124,9.762,7.318,10.07Zm1.381-15.31c-.48.1-8.4,2.066-8.4,2.066l-6.473-8.882c-.183-.263-.331-.514.126-.571s7.809-1.393,8.14-1.461.617-.171,1.028.388,6.005,7.649,6.222,7.923S69.374,25.31,68.895,25.424Z" transform="translate(0.006 -2.602)"/>
</svg>
