<svg xmlns="http://www.w3.org/2000/svg" width="83.215" height="43.766" viewBox="0 0 83.215 43.766">
  <path id="Icon_awesome-php" data-name="Icon awesome-php" d="M41.608,8.351c22.286,0,39.423,9.388,39.423,19.7s-17.15,19.7-39.423,19.7S2.184,38.36,2.184,28.049s17.15-19.7,39.423-19.7m0-2.184C18.632,6.166,0,15.957,0,28.049S18.632,49.932,41.608,49.932s41.608-9.791,41.608-21.883S64.583,6.166,41.608,6.166ZM28.371,26.294c-1.027,5.266-4.655,4.72-9.115,4.72l1.781-9.18C25.979,21.834,29.333,21.3,28.371,26.294ZM12.664,40.311h4.772l1.131-5.825c5.344,0,8.66.39,11.728-2.483,3.394-3.121,4.278-8.673,1.859-11.455-1.261-1.456-3.29-2.171-6.046-2.171H16.916ZM36.81,12.538h4.746l-1.131,5.825c4.1,0,7.892-.3,9.726,1.391,1.924,1.768,1,4.031-1.079,14.706H44.26c2-10.324,2.379-11.182,1.651-11.962-.7-.754-2.3-.6-6.163-.6L37.3,34.46H32.558L36.81,12.538ZM65.662,26.294c-1.04,5.344-4.772,4.72-9.115,4.72l1.781-9.18C63.3,21.834,66.624,21.3,65.662,26.294ZM49.955,40.311H54.74l1.131-5.825c5.617,0,8.725.325,11.728-2.483,3.394-3.121,4.278-8.673,1.859-11.455-1.261-1.456-3.29-2.171-6.046-2.171H54.22L49.955,40.311Z" transform="translate(0 -6.167)"/>
</svg>
